<?xml version="1.0" encoding="utf-8"?>
<!-- Generator: Adobe Adobe Illustrator 29.2.0, SVG Export Plug-In . SVG Version: 6.00 Build 0)  -->
<svg version="1.1" id="Layer_1" xmlns="http://www.w3.org/2000/svg" xmlns:xlink="http://www.w3.org/1999/xlink" x="0px" y="0px"
	 width="500px" height="500px" viewBox="0 0 500 500" style="enable-background:new 0 0 500 500;" xml:space="preserve">
<style type="text/css">
	.st0{fill:url(#SVGID_1_);stroke:#00012B;stroke-width:40;stroke-miterlimit:10;}
	.st1{fill:#00012B;stroke:#FFFFFF;stroke-width:10;stroke-miterlimit:10;}
	.st2{fill:#00012B;}
</style>
<rect width="500" height="500"/>
<radialGradient id="SVGID_1_" cx="250" cy="245.6122" r="320.3266" gradientUnits="userSpaceOnUse">
	<stop  offset="0" style="stop-color:#531F66"/>
	<stop  offset="1" style="stop-color:#661F32"/>
</radialGradient>
<path class="st0" d="M50,439.61v-388c0-3.31,2.69-6,6-6h388c3.31,0,6,2.69,6,6v388c0,3.31-2.69,6-6,6H56
	C52.69,445.61,50,442.93,50,439.61z"/>
<g>
	<path class="st1" d="M260.83,327.53H129.61v-28.11l72.93-103.57h-71.2V159.1h127.65v28l-72.93,103.69h74.77V327.53z"/>
	<path class="st1" d="M361.06,194.7c3.92,0,7.64,0.31,11.18,0.92l2.53,0.46l-4.03,42.51c-3.69-0.92-8.8-1.38-15.32-1.38
		c-9.83,0-16.98,2.25-21.43,6.74c-4.46,4.49-6.68,10.96-6.68,19.41v64.17h-45.05V197h33.53l7.03,20.85H325
		c3.76-6.91,9-12.5,15.73-16.76C347.45,196.83,354.22,194.7,361.06,194.7z"/>
</g>
<g>
	<path class="st2" d="M373.72,391.61h-5.18v9.1h-12.54v-9.1h-18.74v-9.32l19.54-28.58h11.73v28.42h5.18V391.61z M356.01,382.13
		v-5.46c0-1.03,0.04-2.42,0.11-4.16c0.07-1.75,0.13-2.66,0.18-2.75h-0.35c-0.73,1.65-1.55,3.19-2.48,4.63l-5.21,7.75H356.01z"/>
	<path class="st2" d="M410.98,377.27c0,8.31-1.39,14.41-4.18,18.27c-2.79,3.87-7.05,5.8-12.79,5.8c-5.62,0-9.85-2.02-12.7-6.06
		s-4.28-10.05-4.28-18.02c0-8.36,1.39-14.49,4.18-18.39c2.79-3.9,7.05-5.85,12.79-5.85c5.59,0,9.82,2.03,12.68,6.09
		C409.55,363.19,410.98,369.24,410.98,377.27z M389.66,377.27c0,5.31,0.33,8.97,1,10.96c0.66,1.99,1.78,2.99,3.34,2.99
		c1.58,0,2.71-1.03,3.36-3.09c0.65-2.06,0.98-5.68,0.98-10.87c0-5.21-0.33-8.86-1-10.95s-1.78-3.13-3.34-3.13
		c-1.57,0-2.68,1.01-3.34,3.02C390,368.23,389.66,371.92,389.66,377.27z"/>
</g>
</svg>
